<svg width="1440" height="677" viewBox="0 0 1440 677" fill="none" xmlns="http://www.w3.org/2000/svg">
<rect y="39" width="1440" height="552" fill="white"/>
<g clip-path="url(#clip0)">
<path d="M158.478 120.667C163.238 120.667 167.097 116.808 167.097 112.048C167.097 107.288 163.238 103.429 158.478 103.429C153.718 103.429 149.859 107.288 149.859 112.048C149.859 116.808 153.718 120.667 158.478 120.667Z" fill="#F9F3FE"/>
<path d="M158.476 157.901C163.236 157.901 167.095 154.042 167.095 149.282C167.095 144.522 163.236 140.663 158.476 140.663C153.716 140.663 149.857 144.522 149.857 149.282C149.857 154.042 153.716 157.901 158.476 157.901Z" fill="#F9F3FE"/>
<path d="M158.476 195.135C163.236 195.135 167.095 191.276 167.095 186.516C167.095 181.756 163.236 177.897 158.476 177.897C153.716 177.897 149.857 181.756 149.857 186.516C149.857 191.276 153.716 195.135 158.476 195.135Z" fill="#F9F3FE"/>
<path d="M158.476 232.369C163.236 232.369 167.095 228.51 167.095 223.75C167.095 218.99 163.236 215.131 158.476 215.131C153.716 215.131 149.857 218.99 149.857 223.75C149.857 228.51 153.716 232.369 158.476 232.369Z" fill="#F9F3FE"/>
<path d="M158.476 269.603C163.236 269.603 167.095 265.744 167.095 260.984C167.095 256.224 163.236 252.365 158.476 252.365C153.716 252.365 149.857 256.224 149.857 260.984C149.857 265.744 153.716 269.603 158.476 269.603Z" fill="#F9F3FE"/>
<path d="M158.476 306.837C163.236 306.837 167.095 302.978 167.095 298.218C167.095 293.458 163.236 289.599 158.476 289.599C153.716 289.599 149.857 293.458 149.857 298.218C149.857 302.978 153.716 306.837 158.476 306.837Z" fill="#F9F3FE"/>
<path d="M196.399 120.666C201.159 120.666 205.018 116.807 205.018 112.047C205.018 107.287 201.159 103.428 196.399 103.428C191.639 103.428 187.78 107.287 187.78 112.047C187.78 116.807 191.639 120.666 196.399 120.666Z" fill="#F9F3FE"/>
<path d="M196.399 157.9C201.159 157.9 205.018 154.041 205.018 149.281C205.018 144.521 201.159 140.662 196.399 140.662C191.639 140.662 187.78 144.521 187.78 149.281C187.78 154.041 191.639 157.9 196.399 157.9Z" fill="#F9F3FE"/>
<path d="M196.4 195.135C201.16 195.135 205.019 191.276 205.019 186.516C205.019 181.755 201.16 177.897 196.4 177.897C191.64 177.897 187.781 181.755 187.781 186.516C187.781 191.276 191.64 195.135 196.4 195.135Z" fill="#F9F3FE"/>
<path d="M196.4 232.369C201.16 232.369 205.019 228.51 205.019 223.75C205.019 218.99 201.16 215.131 196.4 215.131C191.64 215.131 187.781 218.99 187.781 223.75C187.781 228.51 191.64 232.369 196.4 232.369Z" fill="#F9F3FE"/>
<path d="M196.4 269.603C201.16 269.603 205.019 265.744 205.019 260.984C205.019 256.224 201.16 252.365 196.4 252.365C191.64 252.365 187.781 256.224 187.781 260.984C187.781 265.744 191.64 269.603 196.4 269.603Z" fill="#F9F3FE"/>
<path d="M196.4 306.837C201.16 306.837 205.019 302.978 205.019 298.218C205.019 293.458 201.16 289.599 196.4 289.599C191.64 289.599 187.781 293.458 187.781 298.218C187.781 302.978 191.64 306.837 196.4 306.837Z" fill="#F9F3FE"/>
<path d="M234.324 120.667C239.084 120.667 242.943 116.808 242.943 112.048C242.943 107.288 239.084 103.429 234.324 103.429C229.563 103.429 225.705 107.288 225.705 112.048C225.705 116.808 229.563 120.667 234.324 120.667Z" fill="#F9F3FE"/>
<path d="M234.323 157.901C239.083 157.901 242.942 154.042 242.942 149.282C242.942 144.521 239.083 140.663 234.323 140.663C229.563 140.663 225.704 144.521 225.704 149.282C225.704 154.042 229.563 157.901 234.323 157.901Z" fill="#F9F3FE"/>
<path d="M234.323 195.135C239.083 195.135 242.942 191.276 242.942 186.516C242.942 181.755 239.083 177.897 234.323 177.897C229.563 177.897 225.704 181.755 225.704 186.516C225.704 191.276 229.563 195.135 234.323 195.135Z" fill="#F9F3FE"/>
<path d="M234.323 232.369C239.083 232.369 242.942 228.51 242.942 223.75C242.942 218.99 239.083 215.131 234.323 215.131C229.563 215.131 225.704 218.99 225.704 223.75C225.704 228.51 229.563 232.369 234.323 232.369Z" fill="#F9F3FE"/>
<path d="M234.323 269.603C239.083 269.603 242.942 265.744 242.942 260.984C242.942 256.224 239.083 252.365 234.323 252.365C229.563 252.365 225.704 256.224 225.704 260.984C225.704 265.744 229.563 269.603 234.323 269.603Z" fill="#F9F3FE"/>
<path d="M234.323 306.837C239.083 306.837 242.942 302.978 242.942 298.218C242.942 293.458 239.083 289.599 234.323 289.599C229.563 289.599 225.704 293.458 225.704 298.218C225.704 302.978 229.563 306.837 234.323 306.837Z" fill="#F9F3FE"/>
<path d="M272.247 120.666C277.007 120.666 280.866 116.807 280.866 112.047C280.866 107.287 277.007 103.428 272.247 103.428C267.487 103.428 263.628 107.287 263.628 112.047C263.628 116.807 267.487 120.666 272.247 120.666Z" fill="#F9F3FE"/>
<path d="M272.246 157.9C277.006 157.9 280.865 154.041 280.865 149.281C280.865 144.521 277.006 140.662 272.246 140.662C267.486 140.662 263.627 144.521 263.627 149.281C263.627 154.041 267.486 157.9 272.246 157.9Z" fill="#F9F3FE"/>
<path d="M272.247 195.135C277.007 195.135 280.866 191.276 280.866 186.516C280.866 181.755 277.007 177.897 272.247 177.897C267.487 177.897 263.628 181.756 263.628 186.516C263.628 191.276 267.487 195.135 272.247 195.135Z" fill="#F9F3FE"/>
<path d="M272.247 232.369C277.007 232.369 280.866 228.51 280.866 223.75C280.866 218.99 277.007 215.131 272.247 215.131C267.487 215.131 263.628 218.99 263.628 223.75C263.628 228.51 267.487 232.369 272.247 232.369Z" fill="#F9F3FE"/>
<path d="M272.247 269.603C277.007 269.603 280.866 265.744 280.866 260.984C280.866 256.224 277.007 252.365 272.247 252.365C267.487 252.365 263.628 256.224 263.628 260.984C263.628 265.744 267.487 269.603 272.247 269.603Z" fill="#F9F3FE"/>
<path d="M272.247 306.837C277.007 306.837 280.866 302.978 280.866 298.218C280.866 293.458 277.007 289.599 272.247 289.599C267.487 289.599 263.628 293.458 263.628 298.218C263.628 302.978 267.487 306.837 272.247 306.837Z" fill="#F9F3FE"/>
<path d="M310.17 120.666C314.931 120.666 318.789 116.807 318.789 112.047C318.789 107.287 314.931 103.428 310.17 103.428C305.41 103.428 301.551 107.287 301.551 112.047C301.551 116.807 305.41 120.666 310.17 120.666Z" fill="#F9F3FE"/>
<path d="M310.17 157.901C314.93 157.901 318.789 154.042 318.789 149.282C318.789 144.521 314.93 140.663 310.17 140.663C305.41 140.663 301.551 144.521 301.551 149.282C301.551 154.042 305.41 157.901 310.17 157.901Z" fill="#F9F3FE"/>
<path d="M310.17 195.135C314.93 195.135 318.789 191.276 318.789 186.516C318.789 181.755 314.93 177.897 310.17 177.897C305.41 177.897 301.551 181.755 301.551 186.516C301.551 191.276 305.41 195.135 310.17 195.135Z" fill="#F9F3FE"/>
<path d="M310.17 232.369C314.93 232.369 318.789 228.51 318.789 223.75C318.789 218.99 314.93 215.131 310.17 215.131C305.41 215.131 301.551 218.99 301.551 223.75C301.551 228.51 305.41 232.369 310.17 232.369Z" fill="#F9F3FE"/>
<path d="M310.17 269.603C314.93 269.603 318.789 265.744 318.789 260.984C318.789 256.224 314.93 252.365 310.17 252.365C305.41 252.365 301.551 256.224 301.551 260.984C301.551 265.744 305.41 269.603 310.17 269.603Z" fill="#F9F3FE"/>
<path d="M310.17 306.837C314.93 306.837 318.789 302.978 318.789 298.218C318.789 293.458 314.93 289.599 310.17 289.599C305.41 289.599 301.551 293.458 301.551 298.218C301.551 302.978 305.41 306.837 310.17 306.837Z" fill="#F9F3FE"/>
<path d="M348.094 120.666C352.854 120.666 356.713 116.808 356.713 112.047C356.713 107.287 352.854 103.428 348.094 103.428C343.334 103.428 339.475 107.287 339.475 112.047C339.475 116.808 343.334 120.666 348.094 120.666Z" fill="#F9F3FE"/>
<path d="M348.093 157.9C352.853 157.9 356.712 154.041 356.712 149.281C356.712 144.521 352.853 140.662 348.093 140.662C343.333 140.662 339.474 144.521 339.474 149.281C339.474 154.041 343.333 157.9 348.093 157.9Z" fill="#F9F3FE"/>
<path d="M348.093 195.134C352.854 195.134 356.712 191.275 356.712 186.515C356.712 181.755 352.854 177.896 348.093 177.896C343.333 177.896 339.474 181.755 339.474 186.515C339.474 191.275 343.333 195.134 348.093 195.134Z" fill="#F9F3FE"/>
<path d="M348.094 232.368C352.854 232.368 356.713 228.51 356.713 223.749C356.713 218.989 352.854 215.13 348.094 215.13C343.334 215.13 339.475 218.989 339.475 223.749C339.475 228.51 343.334 232.368 348.094 232.368Z" fill="#F9F3FE"/>
<path d="M348.094 269.603C352.854 269.603 356.713 265.744 356.713 260.984C356.713 256.224 352.854 252.365 348.094 252.365C343.334 252.365 339.475 256.224 339.475 260.984C339.475 265.744 343.334 269.603 348.094 269.603Z" fill="#F9F3FE"/>
<path d="M348.094 306.837C352.855 306.837 356.713 302.979 356.713 298.218C356.713 293.458 352.855 289.599 348.094 289.599C343.334 289.599 339.475 293.458 339.475 298.218C339.475 302.979 343.334 306.837 348.094 306.837Z" fill="#F9F3FE"/>
</g>
<g clip-path="url(#clip1)">
<path d="M972.468 249.769C979.481 249.769 985.166 244.084 985.166 237.071C985.166 230.058 979.481 224.373 972.468 224.373C965.455 224.373 959.77 230.058 959.77 237.071C959.77 244.084 965.455 249.769 972.468 249.769Z" fill="#F9F3FE"/>
<path d="M972.466 304.622C979.479 304.622 985.164 298.938 985.164 291.925C985.164 284.912 979.479 279.227 972.466 279.227C965.453 279.227 959.768 284.912 959.768 291.925C959.768 298.938 965.453 304.622 972.466 304.622Z" fill="#F9F3FE"/>
<path d="M972.466 359.476C979.479 359.476 985.164 353.791 985.164 346.779C985.164 339.766 979.479 334.081 972.466 334.081C965.453 334.081 959.768 339.766 959.768 346.779C959.768 353.791 965.453 359.476 972.466 359.476Z" fill="#F9F3FE"/>
<path d="M972.466 414.33C979.479 414.33 985.164 408.645 985.164 401.632C985.164 394.62 979.479 388.935 972.466 388.935C965.453 388.935 959.768 394.62 959.768 401.632C959.768 408.645 965.453 414.33 972.466 414.33Z" fill="#F9F3FE"/>
<path d="M972.466 469.184C979.479 469.184 985.164 463.499 985.164 456.486C985.163 449.474 979.479 443.789 972.466 443.789C965.453 443.789 959.768 449.474 959.768 456.486C959.768 463.499 965.453 469.184 972.466 469.184Z" fill="#F9F3FE"/>
<path d="M972.466 524.038C979.479 524.038 985.164 518.353 985.164 511.34C985.163 504.328 979.479 498.643 972.466 498.643C965.453 498.643 959.768 504.328 959.768 511.34C959.768 518.353 965.453 524.038 972.466 524.038Z" fill="#F9F3FE"/>
<path d="M1028.33 249.768C1035.35 249.768 1041.03 244.083 1041.03 237.07C1041.03 230.057 1035.35 224.372 1028.33 224.372C1021.32 224.372 1015.64 230.057 1015.64 237.07C1015.64 244.083 1021.32 249.768 1028.33 249.768Z" fill="#F9F3FE"/>
<path d="M1028.33 304.622C1035.35 304.622 1041.03 298.937 1041.03 291.924C1041.03 284.911 1035.35 279.226 1028.33 279.226C1021.32 279.226 1015.64 284.911 1015.64 291.924C1015.64 298.937 1021.32 304.622 1028.33 304.622Z" fill="#F9F3FE"/>
<path d="M1028.34 359.476C1035.35 359.476 1041.03 353.791 1041.03 346.779C1041.03 339.766 1035.35 334.081 1028.34 334.081C1021.32 334.081 1015.64 339.766 1015.64 346.779C1015.64 353.791 1021.32 359.476 1028.34 359.476Z" fill="#F9F3FE"/>
<path d="M1028.34 414.33C1035.35 414.33 1041.03 408.645 1041.03 401.632C1041.03 394.62 1035.35 388.935 1028.34 388.935C1021.32 388.935 1015.64 394.62 1015.64 401.632C1015.64 408.645 1021.32 414.33 1028.34 414.33Z" fill="#F9F3FE"/>
<path d="M1028.34 469.184C1035.35 469.184 1041.03 463.499 1041.03 456.486C1041.03 449.474 1035.35 443.789 1028.34 443.789C1021.32 443.789 1015.64 449.474 1015.64 456.486C1015.64 463.499 1021.32 469.184 1028.34 469.184Z" fill="#F9F3FE"/>
<path d="M1028.34 524.038C1035.35 524.038 1041.03 518.353 1041.03 511.34C1041.03 504.328 1035.35 498.643 1028.34 498.643C1021.32 498.643 1015.64 504.328 1015.64 511.34C1015.64 518.353 1021.32 524.038 1028.34 524.038Z" fill="#F9F3FE"/>
<path d="M1084.21 249.769C1091.22 249.769 1096.9 244.084 1096.9 237.071C1096.9 230.058 1091.22 224.373 1084.21 224.373C1077.19 224.373 1071.51 230.058 1071.51 237.071C1071.51 244.084 1077.19 249.769 1084.21 249.769Z" fill="#F9F3FE"/>
<path d="M1084.21 304.622C1091.22 304.622 1096.9 298.937 1096.9 291.925C1096.9 284.912 1091.22 279.227 1084.21 279.227C1077.19 279.227 1071.51 284.912 1071.51 291.925C1071.51 298.937 1077.19 304.622 1084.21 304.622Z" fill="#F9F3FE"/>
<path d="M1084.21 359.476C1091.22 359.476 1096.9 353.791 1096.9 346.779C1096.9 339.766 1091.22 334.081 1084.21 334.081C1077.19 334.081 1071.51 339.766 1071.51 346.779C1071.51 353.791 1077.19 359.476 1084.21 359.476Z" fill="#F9F3FE"/>
<path d="M1084.21 414.33C1091.22 414.33 1096.9 408.645 1096.9 401.633C1096.9 394.62 1091.22 388.935 1084.21 388.935C1077.19 388.935 1071.51 394.62 1071.51 401.633C1071.51 408.645 1077.19 414.33 1084.21 414.33Z" fill="#F9F3FE"/>
<path d="M1084.21 469.184C1091.22 469.184 1096.9 463.499 1096.9 456.486C1096.9 449.474 1091.22 443.789 1084.21 443.789C1077.19 443.789 1071.51 449.474 1071.51 456.486C1071.51 463.499 1077.19 469.184 1084.21 469.184Z" fill="#F9F3FE"/>
<path d="M1084.21 524.038C1091.22 524.038 1096.9 518.353 1096.9 511.34C1096.9 504.328 1091.22 498.643 1084.21 498.643C1077.19 498.643 1071.51 504.328 1071.51 511.34C1071.51 518.353 1077.19 524.038 1084.21 524.038Z" fill="#F9F3FE"/>
<path d="M1140.08 249.768C1147.09 249.768 1152.77 244.083 1152.77 237.07C1152.77 230.058 1147.09 224.373 1140.08 224.373C1133.06 224.373 1127.38 230.058 1127.38 237.07C1127.38 244.083 1133.06 249.768 1140.08 249.768Z" fill="#F9F3FE"/>
<path d="M1140.07 304.621C1147.09 304.621 1152.77 298.936 1152.77 291.924C1152.77 284.911 1147.09 279.226 1140.07 279.226C1133.06 279.226 1127.38 284.911 1127.38 291.924C1127.38 298.936 1133.06 304.621 1140.07 304.621Z" fill="#F9F3FE"/>
<path d="M1140.07 359.476C1147.09 359.476 1152.77 353.791 1152.77 346.779C1152.77 339.766 1147.09 334.081 1140.07 334.081C1133.06 334.081 1127.38 339.766 1127.38 346.779C1127.38 353.791 1133.06 359.476 1140.07 359.476Z" fill="#F9F3FE"/>
<path d="M1140.07 414.33C1147.09 414.33 1152.77 408.645 1152.77 401.633C1152.77 394.62 1147.09 388.935 1140.07 388.935C1133.06 388.935 1127.38 394.62 1127.38 401.633C1127.38 408.645 1133.06 414.33 1140.07 414.33Z" fill="#F9F3FE"/>
<path d="M1140.07 469.184C1147.09 469.184 1152.77 463.499 1152.77 456.486C1152.77 449.474 1147.09 443.789 1140.07 443.789C1133.06 443.789 1127.38 449.474 1127.38 456.486C1127.38 463.499 1133.06 469.184 1140.07 469.184Z" fill="#F9F3FE"/>
<path d="M1140.07 524.038C1147.09 524.038 1152.77 518.353 1152.77 511.34C1152.77 504.328 1147.09 498.643 1140.07 498.643C1133.06 498.643 1127.38 504.328 1127.38 511.34C1127.38 518.353 1133.06 524.038 1140.07 524.038Z" fill="#F9F3FE"/>
<path d="M1195.94 249.768C1202.96 249.768 1208.64 244.083 1208.64 237.07C1208.64 230.058 1202.96 224.373 1195.94 224.373C1188.93 224.373 1183.25 230.058 1183.25 237.07C1183.25 244.083 1188.93 249.768 1195.94 249.768Z" fill="#F9F3FE"/>
<path d="M1195.94 304.622C1202.96 304.622 1208.64 298.937 1208.64 291.925C1208.64 284.912 1202.96 279.227 1195.94 279.227C1188.93 279.227 1183.25 284.912 1183.25 291.925C1183.25 298.937 1188.93 304.622 1195.94 304.622Z" fill="#F9F3FE"/>
<path d="M1195.94 359.476C1202.96 359.476 1208.64 353.791 1208.64 346.779C1208.64 339.766 1202.96 334.081 1195.94 334.081C1188.93 334.081 1183.25 339.766 1183.25 346.779C1183.25 353.791 1188.93 359.476 1195.94 359.476Z" fill="#F9F3FE"/>
<path d="M1195.94 414.33C1202.96 414.33 1208.64 408.645 1208.64 401.633C1208.64 394.62 1202.96 388.935 1195.94 388.935C1188.93 388.935 1183.25 394.62 1183.25 401.633C1183.25 408.645 1188.93 414.33 1195.94 414.33Z" fill="#F9F3FE"/>
<path d="M1195.94 469.184C1202.96 469.184 1208.64 463.499 1208.64 456.486C1208.64 449.474 1202.96 443.789 1195.94 443.789C1188.93 443.789 1183.25 449.474 1183.25 456.486C1183.25 463.499 1188.93 469.184 1195.94 469.184Z" fill="#F9F3FE"/>
<path d="M1195.94 524.038C1202.96 524.038 1208.64 518.353 1208.64 511.34C1208.64 504.328 1202.96 498.643 1195.94 498.643C1188.93 498.643 1183.25 504.328 1183.25 511.34C1183.25 518.353 1188.93 524.038 1195.94 524.038Z" fill="#F9F3FE"/>
<path d="M1251.81 249.768C1258.83 249.768 1264.51 244.083 1264.51 237.07C1264.51 230.058 1258.83 224.373 1251.81 224.373C1244.8 224.373 1239.12 230.058 1239.12 237.07C1239.12 244.083 1244.8 249.768 1251.81 249.768Z" fill="#F9F3FE"/>
<path d="M1251.81 304.621C1258.83 304.621 1264.51 298.936 1264.51 291.923C1264.51 284.911 1258.83 279.226 1251.81 279.226C1244.8 279.226 1239.12 284.911 1239.12 291.923C1239.12 298.936 1244.8 304.621 1251.81 304.621Z" fill="#F9F3FE"/>
<path d="M1251.81 359.475C1258.83 359.475 1264.51 353.79 1264.51 346.777C1264.51 339.764 1258.83 334.079 1251.81 334.079C1244.8 334.079 1239.12 339.764 1239.12 346.777C1239.12 353.79 1244.8 359.475 1251.81 359.475Z" fill="#F9F3FE"/>
<path d="M1251.81 414.33C1258.83 414.33 1264.51 408.645 1264.51 401.632C1264.51 394.619 1258.83 388.935 1251.81 388.935C1244.8 388.935 1239.12 394.619 1239.12 401.632C1239.12 408.645 1244.8 414.33 1251.81 414.33Z" fill="#F9F3FE"/>
<path d="M1251.81 469.184C1258.83 469.184 1264.51 463.499 1264.51 456.486C1264.51 449.474 1258.83 443.789 1251.81 443.789C1244.8 443.789 1239.12 449.474 1239.12 456.486C1239.12 463.499 1244.8 469.184 1251.81 469.184Z" fill="#F9F3FE"/>
<path d="M1251.82 524.039C1258.83 524.039 1264.51 518.354 1264.51 511.341C1264.51 504.329 1258.83 498.644 1251.82 498.644C1244.8 498.644 1239.12 504.329 1239.12 511.341C1239.12 518.354 1244.8 524.039 1251.82 524.039Z" fill="#F9F3FE"/>
</g>
<defs>
<clipPath id="clip0">
<rect width="290.317" height="290.317" fill="white" transform="translate(253.285) rotate(45)"/>
</clipPath>
<clipPath id="clip1">
<rect width="427.701" height="427.701" fill="white" transform="translate(1112.14 72) rotate(45)"/>
</clipPath>
</defs>
</svg>
